<svg width="231" height="86" viewBox="0 0 231 86" fill="none" xmlns="http://www.w3.org/2000/svg">
<mask id="mask0_11_4" style="mask-type:alpha" maskUnits="userSpaceOnUse" x="0" y="0" width="86" height="86">
<rect width="86" height="86" fill="#D9D9D9"/>
</mask>
<g mask="url(#mask0_11_4)">
<path d="M17.9167 78.8334C15.9458 78.8334 14.2587 78.1316 12.8552 76.7281C11.4517 75.3247 10.75 73.6375 10.75 71.6667V21.5C10.75 19.5292 11.4517 17.842 12.8552 16.4386C14.2587 15.0351 15.9458 14.3334 17.9167 14.3334H21.5V7.16669H28.6667V14.3334H57.3333V7.16669H64.5V14.3334H68.0833C70.0542 14.3334 71.7413 15.0351 73.1448 16.4386C74.5483 17.842 75.25 19.5292 75.25 21.5V71.6667C75.25 73.6375 74.5483 75.3247 73.1448 76.7281C71.7413 78.1316 70.0542 78.8334 68.0833 78.8334H17.9167ZM17.9167 71.6667H68.0833V35.8334H17.9167V71.6667ZM17.9167 28.6667H68.0833V21.5H17.9167V28.6667Z" fill="#FF7D03"/>
</g>
<path d="M101.904 41.744H93.008L91.536 46H86.832L94.864 23.632H100.08L108.112 46H103.376L101.904 41.744ZM100.688 38.16L97.456 28.816L94.224 38.16H100.688ZM121.258 27.984C122.581 27.984 123.744 28.2507 124.746 28.784C125.749 29.296 126.538 29.968 127.114 30.8V28.272H131.626V46.128C131.626 47.7707 131.296 49.232 130.634 50.512C129.973 51.8133 128.981 52.8373 127.658 53.584C126.336 54.352 124.736 54.736 122.858 54.736C120.341 54.736 118.272 54.1493 116.65 52.976C115.05 51.8027 114.144 50.2027 113.93 48.176H118.378C118.613 48.9867 119.114 49.6267 119.882 50.096C120.672 50.5867 121.621 50.832 122.73 50.832C124.032 50.832 125.088 50.4373 125.898 49.648C126.709 48.88 127.114 47.7067 127.114 46.128V43.376C126.538 44.208 125.738 44.9013 124.714 45.456C123.712 46.0107 122.56 46.288 121.258 46.288C119.765 46.288 118.4 45.904 117.162 45.136C115.925 44.368 114.944 43.2907 114.218 41.904C113.514 40.496 113.162 38.8853 113.162 37.072C113.162 35.28 113.514 33.6907 114.218 32.304C114.944 30.9173 115.914 29.8507 117.13 29.104C118.368 28.3573 119.744 27.984 121.258 27.984ZM127.114 37.136C127.114 36.048 126.901 35.12 126.474 34.352C126.048 33.5627 125.472 32.9653 124.746 32.56C124.021 32.1333 123.242 31.92 122.41 31.92C121.578 31.92 120.81 32.1227 120.106 32.528C119.402 32.9333 118.826 33.5307 118.378 34.32C117.952 35.088 117.738 36.0053 117.738 37.072C117.738 38.1387 117.952 39.0773 118.378 39.888C118.826 40.6773 119.402 41.2853 120.106 41.712C120.832 42.1387 121.6 42.352 122.41 42.352C123.242 42.352 124.021 42.1493 124.746 41.744C125.472 41.3173 126.048 40.72 126.474 39.952C126.901 39.1627 127.114 38.224 127.114 37.136ZM155.682 36.752C155.682 37.392 155.639 37.968 155.554 38.48H142.594C142.7 39.76 143.148 40.7627 143.938 41.488C144.727 42.2133 145.698 42.576 146.85 42.576C148.514 42.576 149.698 41.8613 150.402 40.432H155.234C154.722 42.1387 153.74 43.5467 152.29 44.656C150.839 45.744 149.058 46.288 146.946 46.288C145.239 46.288 143.703 45.9147 142.338 45.168C140.994 44.4 139.938 43.3227 139.17 41.936C138.423 40.5493 138.05 38.9493 138.05 37.136C138.05 35.3013 138.423 33.6907 139.17 32.304C139.916 30.9173 140.962 29.8507 142.306 29.104C143.65 28.3573 145.196 27.984 146.946 27.984C148.631 27.984 150.135 28.3467 151.458 29.072C152.802 29.7973 153.836 30.832 154.562 32.176C155.308 33.4987 155.682 35.024 155.682 36.752ZM151.042 35.472C151.02 34.32 150.604 33.4027 149.794 32.72C148.983 32.016 147.991 31.664 146.818 31.664C145.708 31.664 144.77 32.0053 144.002 32.688C143.255 33.3493 142.796 34.2773 142.626 35.472H151.042ZM171.976 28.016C174.088 28.016 175.794 28.688 177.096 30.032C178.397 31.3547 179.048 33.2107 179.048 35.6V46H174.568V36.208C174.568 34.8 174.216 33.7227 173.512 32.976C172.808 32.208 171.848 31.824 170.632 31.824C169.394 31.824 168.413 32.208 167.688 32.976C166.984 33.7227 166.632 34.8 166.632 36.208V46H162.152V28.272H166.632V30.48C167.229 29.712 167.986 29.1147 168.904 28.688C169.842 28.24 170.866 28.016 171.976 28.016ZM185.356 37.072C185.356 35.28 185.708 33.6907 186.412 32.304C187.137 30.9173 188.119 29.8507 189.356 29.104C190.593 28.3573 191.969 27.984 193.484 27.984C194.636 27.984 195.735 28.24 196.78 28.752C197.825 29.2427 198.657 29.904 199.276 30.736V22.32H203.82V46H199.276V43.376C198.721 44.2507 197.943 44.9547 196.94 45.488C195.937 46.0213 194.775 46.288 193.452 46.288C191.959 46.288 190.593 45.904 189.356 45.136C188.119 44.368 187.137 43.2907 186.412 41.904C185.708 40.496 185.356 38.8853 185.356 37.072ZM199.308 37.136C199.308 36.048 199.095 35.12 198.668 34.352C198.241 33.5627 197.665 32.9653 196.94 32.56C196.215 32.1333 195.436 31.92 194.604 31.92C193.772 31.92 193.004 32.1227 192.3 32.528C191.596 32.9333 191.02 33.5307 190.572 34.32C190.145 35.088 189.932 36.0053 189.932 37.072C189.932 38.1387 190.145 39.0773 190.572 39.888C191.02 40.6773 191.596 41.2853 192.3 41.712C193.025 42.1387 193.793 42.352 194.604 42.352C195.436 42.352 196.215 42.1493 196.94 41.744C197.665 41.3173 198.241 40.72 198.668 39.952C199.095 39.1627 199.308 38.224 199.308 37.136ZM210.243 37.072C210.243 35.28 210.595 33.6907 211.299 32.304C212.025 30.9173 212.996 29.8507 214.212 29.104C215.449 28.3573 216.825 27.984 218.34 27.984C219.662 27.984 220.814 28.2507 221.796 28.784C222.798 29.3173 223.598 29.9893 224.196 30.8V28.272H228.708V46H224.196V43.408C223.62 44.24 222.82 44.9333 221.796 45.488C220.793 46.0213 219.63 46.288 218.308 46.288C216.814 46.288 215.449 45.904 214.212 45.136C212.996 44.368 212.025 43.2907 211.299 41.904C210.595 40.496 210.243 38.8853 210.243 37.072ZM224.196 37.136C224.196 36.048 223.982 35.12 223.556 34.352C223.129 33.5627 222.553 32.9653 221.828 32.56C221.102 32.1333 220.324 31.92 219.492 31.92C218.66 31.92 217.892 32.1227 217.188 32.528C216.484 32.9333 215.908 33.5307 215.46 34.32C215.033 35.088 214.82 36.0053 214.82 37.072C214.82 38.1387 215.033 39.0773 215.46 39.888C215.908 40.6773 216.484 41.2853 217.188 41.712C217.913 42.1387 218.681 42.352 219.492 42.352C220.324 42.352 221.102 42.1493 221.828 41.744C222.553 41.3173 223.129 40.72 223.556 39.952C223.982 39.1627 224.196 38.224 224.196 37.136Z" fill="#FF7D03"/>
<path d="M158.006 64L155.85 60.192H154.926V64H152.966V54.228H156.634C157.39 54.228 158.034 54.3633 158.566 54.634C159.098 54.8953 159.495 55.2547 159.756 55.712C160.027 56.16 160.162 56.664 160.162 57.224C160.162 57.868 159.975 58.4513 159.602 58.974C159.229 59.4873 158.673 59.842 157.936 60.038L160.274 64H158.006ZM154.926 58.722H156.564C157.096 58.722 157.493 58.596 157.754 58.344C158.015 58.0827 158.146 57.7233 158.146 57.266C158.146 56.818 158.015 56.4727 157.754 56.23C157.493 55.978 157.096 55.852 156.564 55.852H154.926V58.722ZM164.329 55.32C163.983 55.32 163.694 55.2127 163.461 54.998C163.237 54.774 163.125 54.4987 163.125 54.172C163.125 53.8453 163.237 53.5747 163.461 53.36C163.694 53.136 163.983 53.024 164.329 53.024C164.674 53.024 164.959 53.136 165.183 53.36C165.416 53.5747 165.533 53.8453 165.533 54.172C165.533 54.4987 165.416 54.774 165.183 54.998C164.959 55.2127 164.674 55.32 164.329 55.32ZM165.295 56.244V64H163.335V56.244H165.295ZM172.075 64.126C171.329 64.126 170.657 63.9627 170.059 63.636C169.462 63.3 168.991 62.8287 168.645 62.222C168.309 61.6153 168.141 60.9153 168.141 60.122C168.141 59.3287 168.314 58.6287 168.659 58.022C169.014 57.4153 169.495 56.9487 170.101 56.622C170.708 56.286 171.385 56.118 172.131 56.118C172.878 56.118 173.555 56.286 174.161 56.622C174.768 56.9487 175.244 57.4153 175.589 58.022C175.944 58.6287 176.121 59.3287 176.121 60.122C176.121 60.9153 175.939 61.6153 175.575 62.222C175.221 62.8287 174.735 63.3 174.119 63.636C173.513 63.9627 172.831 64.126 172.075 64.126ZM172.075 62.418C172.43 62.418 172.761 62.334 173.069 62.166C173.387 61.9887 173.639 61.7273 173.825 61.382C174.012 61.0367 174.105 60.6167 174.105 60.122C174.105 59.3847 173.909 58.82 173.517 58.428C173.135 58.0267 172.663 57.826 172.103 57.826C171.543 57.826 171.072 58.0267 170.689 58.428C170.316 58.82 170.129 59.3847 170.129 60.122C170.129 60.8593 170.311 61.4287 170.675 61.83C171.049 62.222 171.515 62.418 172.075 62.418ZM192.473 54.228L188.889 64H186.509L182.925 54.228H185.025L187.713 61.998L190.387 54.228H192.473ZM202.258 59.954C202.258 60.234 202.239 60.486 202.202 60.71H196.532C196.579 61.27 196.775 61.7087 197.12 62.026C197.465 62.3433 197.89 62.502 198.394 62.502C199.122 62.502 199.64 62.1893 199.948 61.564H202.062C201.838 62.3107 201.409 62.9267 200.774 63.412C200.139 63.888 199.36 64.126 198.436 64.126C197.689 64.126 197.017 63.9627 196.42 63.636C195.832 63.3 195.37 62.8287 195.034 62.222C194.707 61.6153 194.544 60.9153 194.544 60.122C194.544 59.3193 194.707 58.6147 195.034 58.008C195.361 57.4013 195.818 56.9347 196.406 56.608C196.994 56.2813 197.671 56.118 198.436 56.118C199.173 56.118 199.831 56.2767 200.41 56.594C200.998 56.9113 201.451 57.364 201.768 57.952C202.095 58.5307 202.258 59.198 202.258 59.954ZM200.228 59.394C200.219 58.89 200.037 58.4887 199.682 58.19C199.327 57.882 198.893 57.728 198.38 57.728C197.895 57.728 197.484 57.8773 197.148 58.176C196.821 58.4653 196.621 58.8713 196.546 59.394H200.228ZM207.049 57.448C207.301 57.0373 207.627 56.7153 208.029 56.482C208.439 56.2487 208.906 56.132 209.429 56.132V58.19H208.911C208.295 58.19 207.828 58.3347 207.511 58.624C207.203 58.9133 207.049 59.4173 207.049 60.136V64H205.089V56.244H207.049V57.448ZM211.645 60.094C211.645 59.31 211.799 58.6147 212.107 58.008C212.424 57.4013 212.853 56.9347 213.395 56.608C213.936 56.2813 214.538 56.118 215.201 56.118C215.705 56.118 216.185 56.23 216.643 56.454C217.1 56.6687 217.464 56.958 217.735 57.322V53.64H219.723V64H217.735V62.852C217.492 63.2347 217.151 63.5427 216.713 63.776C216.274 64.0093 215.765 64.126 215.187 64.126C214.533 64.126 213.936 63.958 213.395 63.622C212.853 63.286 212.424 62.8147 212.107 62.208C211.799 61.592 211.645 60.8873 211.645 60.094ZM217.749 60.122C217.749 59.646 217.655 59.24 217.469 58.904C217.282 58.5587 217.03 58.2973 216.713 58.12C216.395 57.9333 216.055 57.84 215.691 57.84C215.327 57.84 214.991 57.9287 214.683 58.106C214.375 58.2833 214.123 58.5447 213.927 58.89C213.74 59.226 213.647 59.6273 213.647 60.094C213.647 60.5607 213.74 60.9713 213.927 61.326C214.123 61.6713 214.375 61.9373 214.683 62.124C215 62.3107 215.336 62.404 215.691 62.404C216.055 62.404 216.395 62.3153 216.713 62.138C217.03 61.9513 217.282 61.69 217.469 61.354C217.655 61.0087 217.749 60.598 217.749 60.122ZM230.247 59.954C230.247 60.234 230.228 60.486 230.191 60.71H224.521C224.568 61.27 224.764 61.7087 225.109 62.026C225.454 62.3433 225.879 62.502 226.383 62.502C227.111 62.502 227.629 62.1893 227.937 61.564H230.051C229.827 62.3107 229.398 62.9267 228.763 63.412C228.128 63.888 227.349 64.126 226.425 64.126C225.678 64.126 225.006 63.9627 224.409 63.636C223.821 63.3 223.359 62.8287 223.023 62.222C222.696 61.6153 222.533 60.9153 222.533 60.122C222.533 59.3193 222.696 58.6147 223.023 58.008C223.35 57.4013 223.807 56.9347 224.395 56.608C224.983 56.2813 225.66 56.118 226.425 56.118C227.162 56.118 227.82 56.2767 228.399 56.594C228.987 56.9113 229.44 57.364 229.757 57.952C230.084 58.5307 230.247 59.198 230.247 59.954ZM228.217 59.394C228.208 58.89 228.026 58.4887 227.671 58.19C227.316 57.882 226.882 57.728 226.369 57.728C225.884 57.728 225.473 57.8773 225.137 58.176C224.81 58.4653 224.61 58.8713 224.535 59.394H228.217Z" fill="#FF7D03"/>
</svg>
